<svg width="80" height="188" viewBox="0 0 80 188" fill="none" xmlns="http://www.w3.org/2000/svg">
<path d="M24.284 168.591C25.9856 168.243 27.7093 167.958 29.3948 167.487C33.3432 166.419 37.33 165.538 41.4036 165.21C43.1715 165.05 43.824 165.6 44.2348 167.459C44.8045 170.001 44.5346 172.461 43.5368 174.849C43.1345 175.78 42.5259 176.509 41.6109 176.904C40.7549 177.274 39.896 177.675 38.9988 177.89C35.8444 178.641 32.6871 179.423 29.4916 180.018C22.8677 181.277 16.4249 183.282 10.0836 185.691C8.55728 186.269 6.92047 186.532 5.6209 187.678C5.1877 188.06 4.63673 187.915 4.22428 187.51C3.65865 186.939 3.09005 186.398 2.5863 185.773C2.3079 185.442 2.12234 185.03 1.99276 184.623C1.0474 181.589 0.499827 178.534 1.35333 175.313C1.67322 174.071 1.77215 172.776 1.89905 171.485C2.38304 166.56 3.66398 161.865 5.1129 157.187C5.61406 155.538 6.11523 153.89 6.56335 152.205C7.48759 148.84 8.78603 145.693 10.6546 142.784C10.9876 142.271 11.4826 141.834 11.9689 141.488C12.4242 141.169 13.0798 141.112 13.3684 141.625C14.043 142.814 15.2568 143.691 15.3921 145.19C15.4848 146.26 15.6584 147.369 15.5551 148.42C15.381 150.191 15.039 151.947 14.6439 153.666C14.0822 156.219 13.4085 158.76 12.8188 161.31C12.5844 162.257 12.462 163.215 12.2718 164.288C12.5635 164.195 12.7064 164.179 12.7963 164.127C17.6218 160.175 22.5003 156.258 27.2786 152.21C35.5107 145.226 43.5955 138.016 50.8702 129.848C57.3845 122.514 63.0032 114.516 66.9648 105.263C71.1016 95.6642 73.7816 85.6491 74.9514 75.1824C75.872 66.9652 74.9407 58.8996 73.1519 50.9316C69.514 34.7471 62.4948 20.474 52.2989 8.04138C50.9379 6.36132 49.512 4.76585 47.762 3.59331C47.2066 3.20522 46.8561 2.74629 47.0418 2.00655C47.1907 1.35414 47.7477 0.863117 48.5314 0.940139C49.4271 1.02816 50.4009 1.18449 51.1773 1.62462C52.4589 2.38728 53.6698 3.2946 54.7848 4.31378C60.1482 9.26756 64.4226 15.2362 67.8395 21.8785C74.2933 34.4284 78.3736 47.8367 79.5588 62.2338C79.9676 67.2768 79.7827 72.322 79.2618 77.3343C77.7259 92.1007 73.855 106.183 67.409 119.436C63.5095 127.482 58.3462 134.585 52.6334 141.239C47.2079 147.558 41.2227 153.246 35.1374 158.803C31.8486 161.785 28.4288 164.663 25.0649 167.546C24.7865 167.792 24.4078 167.906 24.0792 168.086C24.1175 168.272 24.1867 168.43 24.284 168.591Z" fill="#EF4036"/>
</svg>
