<svg width="19" height="24" viewBox="0 0 19 24" fill="none" xmlns="http://www.w3.org/2000/svg">
<path fill-rule="evenodd" clip-rule="evenodd" d="M10.9074 18.9683C10.9143 18.9638 10.9213 18.9595 10.9284 18.9552L16.9245 15.334C16.1163 13.503 17.2534 12.2908 17.2534 12.2908C16.6768 13.5273 17.2385 14.6807 17.4563 15.0516C17.7284 14.9856 18.0222 15.0981 18.1732 15.3529C18.3597 15.6673 18.2583 16.0746 17.9468 16.2627L11.613 20.0877C11.1536 20.3854 10.656 20.4613 10.2676 20.4613C9.90792 20.4613 9.64196 20.396 9.58668 20.3814L8.14461 19.9731V18.5951L9.92054 19.0982C9.97398 19.1104 10.5167 19.2248 10.9074 18.9683ZM2.12579 11.8001C4.19954 12.3296 9.4799 13.7786 9.53296 13.7932L9.6027 13.8166C9.63249 13.8278 10.4562 14.1324 11.3421 13.7136L17.6287 10.0128C17.9422 9.82828 18.3448 9.93521 18.5278 10.2516C18.7106 10.5681 18.6047 10.9743 18.2911 11.1589L11.9346 14.8982C10.6335 15.5307 9.4093 15.1543 9.16185 15.0661C8.75567 14.9549 3.7908 13.5937 1.80332 13.0863C1.75356 13.0737 1.69694 13.059 1.58234 13.2902C1.06011 14.3444 1.40573 16.7458 1.78298 17.1166C2.13044 17.2099 2.48747 17.3094 2.78627 17.3936V15.959C2.78627 15.959 2.72046 14.8641 3.57509 15.0302L7.93255 16.052C7.93255 16.052 7.061 16.2256 7.061 16.9885L7.12474 23.2889C7.12474 23.2889 6.82887 23.72 6.40162 23.2889L5.08689 21.8627C5.08689 21.8627 4.7583 21.5642 4.33105 21.8627L3.27922 22.6053C3.27922 22.6053 2.78627 22.924 2.78627 22.128V18.7718C2.44531 18.6745 1.90885 18.5231 1.40132 18.3868C0.0135459 18.0148 -0.224715 14.891 0.173612 13.341C0.630035 11.5657 1.78322 11.713 2.12579 11.8001ZM18.5446 3.29505C18.4895 3.40468 11.9346 7.3068 11.9346 7.3068C10.6335 7.93933 9.4093 7.56286 9.16185 7.47468C8.75568 7.36346 3.7908 6.00225 1.80332 5.49493C1.75356 5.48217 1.69694 5.46758 1.58234 5.69874C1.06011 6.75275 1.40573 9.15399 1.78298 9.52495C2.75012 9.78297 8.83644 11.3698 9.24262 11.4756C9.3604 11.496 10.4751 11.656 11.799 10.8011C13.8955 9.44696 16.2827 7.92584 17.2109 7.33537C16.3597 5.47666 17.5164 4.24225 17.5164 4.24225C16.9297 5.50008 17.5213 6.67206 17.7304 7.02168C18.0164 6.91377 18.3473 7.01899 18.5163 7.28976C18.7096 7.59989 18.6173 8.00936 18.31 8.20446C18.2789 8.22433 15.1588 10.2062 12.5077 11.9183C11.3276 12.6806 10.2375 12.8236 9.58603 12.8236C9.21725 12.8236 8.98916 12.7779 8.9644 12.7726L8.93449 12.7655C8.86757 12.7482 2.23646 11.0195 1.40132 10.7954C0.0135459 10.4233 -0.224715 7.29957 0.173612 5.74963C0.27203 5.36641 0.403049 5.0732 0.55135 4.84915L0.511885 4.8364C0.686046 4.44508 0.896118 4.15199 1.13193 4.01882C2.17542 3.42896 8.62551 0.436763 8.62551 0.436763C9.63334 -0.00544506 10.4843 0.259806 10.4843 0.259806L18.1789 1.98449C19.5394 2.37176 18.8732 3.03887 18.5446 3.29505Z" fill="#5D5D5D"/>
</svg>
