<svg width="16" height="16" viewBox="0 0 16 16" fill="none" xmlns="http://www.w3.org/2000/svg">
<path fill-rule="evenodd" clip-rule="evenodd" d="M7.68349 15.0214C6.29438 15.0214 5.10935 14.1476 4.64806 12.9197C5.10464 12.3786 5.49681 11.7814 5.81275 11.1399V11.7799C5.81275 12.8131 6.65031 13.6507 7.68349 13.6507C8.55607 13.6507 9.31277 13.0474 9.5072 12.1968C9.86064 10.6505 11.0482 9.63943 11.9916 9.00944C13.0625 8.29436 13.7631 7.0789 13.7631 5.70039C13.7631 3.50497 11.9833 1.72523 9.7879 1.72523C8.14638 1.72523 6.73683 2.7206 6.1304 4.14028C5.93075 3.62013 5.68289 3.12386 5.3923 2.65696C6.35747 1.2656 7.96629 0.354492 9.7879 0.354492C12.7404 0.354492 15.1338 2.74793 15.1338 5.70039C15.1338 7.55602 14.1883 9.19084 12.7529 10.1494C11.8856 10.7285 11.0758 11.4857 10.8435 12.5022C10.5066 13.9762 9.19544 15.0214 7.68349 15.0214ZM11.2545 5.65534C11.2545 6.05723 11.088 6.42023 10.8202 6.6791L11.6823 7.56158C12.1794 7.0787 12.4882 6.40309 12.4882 5.65534C12.4882 4.18772 11.2985 2.99797 9.83084 2.99797C8.36322 2.99797 7.17348 4.18772 7.17348 5.65534C7.17348 5.71315 7.17892 7.20169 7.18318 8.35782C7.18593 9.1041 7.79169 9.70696 8.53797 9.70696C9.28825 9.70696 9.89562 9.0884 9.89276 8.33814C9.89092 7.8592 9.63885 7.41106 9.22812 7.16471L8.41851 6.6791C8.41851 6.6791 8.40714 5.69762 8.40714 5.65534C8.40714 4.86905 9.04456 4.23164 9.83084 4.23164C10.6171 4.23164 11.2545 4.86905 11.2545 5.65534ZM5.40441 7.27689C5.40441 8.92751 4.73532 10.4219 3.65358 11.5035L2.68432 10.5342C3.51801 9.70064 4.03366 8.54899 4.03366 7.27689C4.03366 6.0048 3.51802 4.85315 2.68434 4.01956L3.6536 3.0503C4.73533 4.13195 5.40441 5.62628 5.40441 7.27689ZM2.85957 7.27686C2.85957 8.22474 2.47529 9.08287 1.85403 9.70395L0.884766 8.73469C1.25798 8.36166 1.48883 7.84622 1.48883 7.27686C1.48883 6.70752 1.258 6.1921 0.884819 5.81908L1.85408 4.84982C2.47532 5.4709 2.85957 6.329 2.85957 7.27686Z" fill="#99AAAF"/>
</svg>
