<svg width="18" height="14" viewBox="0 0 18 14" fill="none" xmlns="http://www.w3.org/2000/svg">
<g opacity="0.4">
<path d="M11.1544 7.00195C11.1544 7.32976 11.0899 7.65436 10.9644 7.95721C10.839 8.26007 10.6551 8.53525 10.4233 8.76704C10.1915 8.99884 9.91633 9.18271 9.61347 9.30816C9.31061 9.4336 8.98602 9.49817 8.65821 9.49817C8.3304 9.49817 8.0058 9.4336 7.70295 9.30816C7.40009 9.18271 7.12491 8.99884 6.89311 8.76704C6.66132 8.53525 6.47745 8.26007 6.352 7.95721C6.22655 7.65436 6.16199 7.32976 6.16199 7.00195C6.16199 6.33991 6.42498 5.70499 6.89311 5.23685C7.36125 4.76872 7.99617 4.50573 8.65821 4.50573C9.32025 4.50573 9.95517 4.76872 10.4233 5.23685C10.8914 5.70499 11.1544 6.33991 11.1544 7.00195Z" fill="#002A37"/>
<path fill-rule="evenodd" clip-rule="evenodd" d="M8.6582 0.939697C6.21048 0.939697 4.28982 2.03376 2.91404 3.25048C1.54041 4.4665 0.68028 5.82658 0.335088 6.43281C0.235198 6.60611 0.182617 6.80263 0.182617 7.00266C0.182617 7.20269 0.235198 7.39921 0.335088 7.57251C0.68028 8.17874 1.54041 9.53954 2.91404 10.7534C4.29053 11.9701 6.21048 13.0642 8.6582 13.0642C11.1059 13.0642 13.0266 11.9701 14.4024 10.7534C15.776 9.53811 16.6361 8.17802 16.9813 7.5718C17.0812 7.3985 17.1338 7.20198 17.1338 7.00195C17.1338 6.80192 17.0812 6.6054 16.9813 6.4321C16.6361 5.82587 15.776 4.46579 14.4024 3.2512C13.0259 2.03376 11.1059 0.939697 8.6582 0.939697ZM1.2644 6.96272C1.57892 6.4107 2.37058 5.15974 3.62297 4.05284C4.87108 2.94666 6.55068 2.00951 8.6582 2.00951C10.7657 2.00951 12.4446 2.94737 13.6934 4.05213C14.9458 5.15974 15.7375 6.4107 16.052 6.96201C16.0596 6.974 16.0637 6.98779 16.0641 7.00195C16.0637 7.01611 16.0596 7.0299 16.052 7.04189C15.7375 7.59391 14.9458 8.84416 13.6934 9.95177C12.4453 11.0565 10.7657 11.9944 8.6582 11.9944C6.55068 11.9944 4.87179 11.0565 3.62297 9.95177C2.37058 8.84416 1.57892 7.59391 1.2644 7.04189C1.25682 7.02991 1.25263 7.01611 1.25227 7.00195C1.25276 6.98803 1.25694 6.97449 1.2644 6.96272Z" fill="#002A37"/>
</g>
</svg>
