<svg width="22" height="23" viewBox="0 0 22 23" fill="none" xmlns="http://www.w3.org/2000/svg">
<path fill-rule="evenodd" clip-rule="evenodd" d="M6.465 0.866781C7.638 0.812781 8.012 0.800781 11 0.800781C13.988 0.800781 14.362 0.813781 15.534 0.866781C16.706 0.919781 17.506 1.10678 18.206 1.37778C18.939 1.65478 19.604 2.08778 20.154 2.64778C20.714 3.19678 21.146 3.86078 21.422 4.59478C21.694 5.29478 21.88 6.09478 21.934 7.26478C21.988 8.43978 22 8.81378 22 11.8008C22 14.7888 21.987 15.1628 21.934 16.3358C21.881 17.5058 21.694 18.3058 21.422 19.0058C21.146 19.7399 20.7133 20.405 20.154 20.9548C19.604 21.5148 18.939 21.9468 18.206 22.2228C17.506 22.4948 16.706 22.6808 15.536 22.7348C14.362 22.7888 13.988 22.8008 11 22.8008C8.012 22.8008 7.638 22.7878 6.465 22.7348C5.295 22.6818 4.495 22.4948 3.795 22.2228C3.06092 21.9467 2.39582 21.514 1.846 20.9548C1.28638 20.4055 0.853315 19.7407 0.577 19.0068C0.306 18.3068 0.12 17.5068 0.066 16.3368C0.012 15.1618 0 14.7878 0 11.8008C0 8.81278 0.013 8.43878 0.066 7.26678C0.119 6.09478 0.306 5.29478 0.577 4.59478C0.853723 3.86086 1.28712 3.19609 1.847 2.64678C2.39604 2.08728 3.06047 1.65422 3.794 1.37778C4.494 1.10678 5.294 0.920781 6.464 0.866781H6.465ZM15.445 2.84678C14.285 2.79378 13.937 2.78278 11 2.78278C8.063 2.78278 7.715 2.79378 6.555 2.84678C5.482 2.89578 4.9 3.07478 4.512 3.22578C3.999 3.42578 3.632 3.66278 3.247 4.04778C2.88205 4.40283 2.60118 4.83506 2.425 5.31278C2.274 5.70078 2.095 6.28278 2.046 7.35578C1.993 8.51578 1.982 8.86378 1.982 11.8008C1.982 14.7378 1.993 15.0858 2.046 16.2458C2.095 17.3188 2.274 17.9008 2.425 18.2888C2.601 18.7658 2.882 19.1988 3.247 19.5538C3.602 19.9188 4.035 20.1998 4.512 20.3758C4.9 20.5268 5.482 20.7058 6.555 20.7548C7.715 20.8078 8.062 20.8188 11 20.8188C13.938 20.8188 14.285 20.8078 15.445 20.7548C16.518 20.7058 17.1 20.5268 17.488 20.3758C18.001 20.1758 18.368 19.9388 18.753 19.5538C19.118 19.1988 19.399 18.7658 19.575 18.2888C19.726 17.9008 19.905 17.3188 19.954 16.2458C20.007 15.0858 20.018 14.7378 20.018 11.8008C20.018 8.86378 20.007 8.51578 19.954 7.35578C19.905 6.28278 19.726 5.70078 19.575 5.31278C19.375 4.79978 19.138 4.43278 18.753 4.04778C18.3979 3.68285 17.9657 3.40199 17.488 3.22578C17.1 3.07478 16.518 2.89578 15.445 2.84678ZM9.595 15.1918C10.3797 15.5184 11.2534 15.5625 12.0669 15.3165C12.8805 15.0705 13.5834 14.5497 14.0556 13.843C14.5278 13.1364 14.7401 12.2877 14.656 11.4419C14.572 10.5961 14.197 9.80575 13.595 9.20578C13.2112 8.82226 12.7472 8.52859 12.2363 8.34593C11.7255 8.16326 11.1804 8.09614 10.6405 8.1494C10.1006 8.20265 9.57915 8.37496 9.1138 8.65391C8.64845 8.93287 8.25074 9.31153 7.9493 9.76263C7.64786 10.2137 7.45019 10.7261 7.37052 11.2627C7.29084 11.7994 7.33115 12.3471 7.48854 12.8663C7.64593 13.3855 7.91648 13.8634 8.28072 14.2655C8.64496 14.6676 9.09382 14.984 9.595 15.1918ZM7.002 7.80278C7.52702 7.27776 8.15032 6.86128 8.8363 6.57714C9.52228 6.293 10.2575 6.14676 11 6.14676C11.7425 6.14676 12.4777 6.293 13.1637 6.57714C13.8497 6.86128 14.473 7.27776 14.998 7.80278C15.523 8.32781 15.9395 8.9511 16.2236 9.63708C16.5078 10.3231 16.654 11.0583 16.654 11.8008C16.654 12.5433 16.5078 13.2785 16.2236 13.9645C15.9395 14.6505 15.523 15.2738 14.998 15.7988C13.9377 16.8591 12.4995 17.4548 11 17.4548C9.50046 17.4548 8.06234 16.8591 7.002 15.7988C5.94166 14.7384 5.34597 13.3003 5.34597 11.8008C5.34597 10.3012 5.94166 8.86312 7.002 7.80278ZM17.908 6.98878C18.0381 6.86605 18.1423 6.71846 18.2143 6.55476C18.2863 6.39105 18.3248 6.21455 18.3274 6.03571C18.33 5.85687 18.2967 5.67933 18.2295 5.51359C18.1622 5.34785 18.0624 5.19729 17.936 5.07082C17.8095 4.94435 17.6589 4.84454 17.4932 4.7773C17.3275 4.71006 17.1499 4.67676 16.9711 4.67936C16.7922 4.68197 16.6157 4.72044 16.452 4.79248C16.2883 4.86452 16.1407 4.96868 16.018 5.09878C15.7793 5.35181 15.6486 5.6879 15.6537 6.03571C15.6588 6.38352 15.7992 6.71566 16.0452 6.96162C16.2911 7.20759 16.6233 7.34801 16.9711 7.35308C17.3189 7.35815 17.655 7.22747 17.908 6.98878Z" fill="#002A37"/>
</svg>
