<svg width="15" height="15" viewBox="0 0 15 15" fill="none" xmlns="http://www.w3.org/2000/svg">
<path d="M2.625 14.3828C3.2475 14.3828 3.75 13.8803 3.75 13.2578V12.1328H11.25V13.2578C11.25 13.8803 11.7525 14.3828 12.375 14.3828C12.9975 14.3828 13.5 13.8803 13.5 13.2578V11.3828C13.5 10.5578 12.825 9.88281 12 9.88281H3C2.175 9.88281 1.5 10.5578 1.5 11.3828V13.2578C1.5 13.8803 2.0025 14.3828 2.625 14.3828ZM13.5 6.13281H14.25C14.6625 6.13281 15 6.47031 15 6.88281V7.63281C15 8.04531 14.6625 8.38281 14.25 8.38281H13.5C13.0875 8.38281 12.75 8.04531 12.75 7.63281V6.88281C12.75 6.47031 13.0875 6.13281 13.5 6.13281ZM0.75 6.13281H1.5C1.9125 6.13281 2.25 6.47031 2.25 6.88281V7.63281C2.25 8.04531 1.9125 8.38281 1.5 8.38281H0.75C0.3375 8.38281 0 8.04531 0 7.63281V6.88281C0 6.47031 0.3375 6.13281 0.75 6.13281ZM11.25 8.38281H3.75V2.38281C3.75 1.55781 4.425 0.882812 5.25 0.882812H9.75C10.575 0.882812 11.25 1.55781 11.25 2.38281V8.38281Z" fill="#40AC2E"/>
</svg>
