<svg width="25" height="28" viewBox="0 0 25 28" fill="none" xmlns="http://www.w3.org/2000/svg">
<path d="M9.59582 7.24064C9.65231 6.88183 9.88287 6.5879 10.1928 6.43903C10.3341 6.37185 10.4913 6.33444 10.6562 6.33444H17.3806C18.1769 6.33444 18.9197 6.38636 19.5984 6.49553C19.7931 6.5268 19.9817 6.56271 20.1649 6.60394C20.3481 6.64437 20.526 6.6902 20.6985 6.74059C20.7848 6.76575 20.8695 6.79177 20.9528 6.81923C21.2864 6.93069 21.5971 7.06047 21.8826 7.2124C22.2193 5.06484 21.8802 3.60438 20.7191 2.28133C19.4404 0.82469 17.131 0.200195 14.1757 0.200195H5.59768C4.9938 0.200195 4.48 0.639937 4.38533 1.23618L0.813959 23.8859C0.742959 24.3333 1.0888 24.7372 1.54075 24.7372H6.83674L8.16666 16.3019L9.59582 7.24064Z" fill="#002F86"/>
<path d="M21.8825 7.21216C21.8566 7.3763 21.8283 7.54273 21.7947 7.7145C20.6641 13.522 16.7934 15.5306 11.8501 15.5306H9.33308C8.7292 15.5306 8.21922 15.9703 8.12532 16.5666L6.83663 24.7369L6.47094 27.0547C6.4091 27.4456 6.71142 27.7999 7.10689 27.7999H11.5707C12.099 27.7999 12.5487 27.4151 12.6311 26.8937L12.6747 26.6662L13.516 21.3343L13.5702 21.0396C13.6527 20.5182 14.1024 20.1334 14.6307 20.1334H15.2987C19.6228 20.1334 23.0086 18.3767 23.9981 13.296C24.4111 11.1729 24.1973 9.40018 23.1048 8.15501C22.7735 7.77787 22.362 7.46638 21.8826 7.21216" fill="#009CDE"/>
<path d="M20.6991 6.74038C20.5265 6.68999 20.3487 6.64419 20.1654 6.60372C19.9822 6.56323 19.7929 6.52738 19.599 6.49608C18.9195 6.38614 18.1774 6.33423 17.3804 6.33423H10.6568C10.4911 6.33423 10.3338 6.37167 10.1934 6.43958C9.88265 6.58845 9.65286 6.88162 9.59636 7.2412L8.1672 16.3025L8.12598 16.5666C8.21988 15.9704 8.72986 15.5306 9.33374 15.5306H11.8508C16.7941 15.5306 20.6647 13.5228 21.7954 7.71453C21.829 7.54276 21.8572 7.37632 21.8832 7.21219C21.5969 7.06102 21.2869 6.93048 20.9533 6.81978C20.8701 6.79229 20.7853 6.76554 20.6991 6.74038Z" fill="#012069"/>
</svg>
