<svg width="24" height="21" viewBox="0 0 24 21" fill="none" xmlns="http://www.w3.org/2000/svg">
<path fill-rule="evenodd" clip-rule="evenodd" d="M14.213 3.64606C12.1119 4.51927 7.91145 6.32871 1.61352 9.07258C0.590871 9.47947 0.0543406 9.87737 0.0057288 10.2663C-0.0770913 10.9252 0.747509 11.1845 1.86738 11.5356C2.02042 11.5842 2.17886 11.6328 2.3409 11.6868C3.44456 12.0451 4.92812 12.4646 5.69871 12.4808C6.39908 12.4952 7.18047 12.2071 8.04288 11.6166C13.9267 7.64303 16.964 5.63554 17.1549 5.59233C17.2899 5.56172 17.4772 5.52211 17.6032 5.63554C17.7292 5.74717 17.7166 5.95962 17.704 6.01723C17.6212 6.36472 14.3912 9.36965 12.7168 10.9252C12.1947 11.4095 11.8256 11.7534 11.75 11.8326C11.5807 12.0073 11.4079 12.1747 11.2423 12.335C10.216 13.3216 9.44902 14.0634 11.2855 15.2733C12.1677 15.8548 12.8735 16.3355 13.5774 16.8145C14.3462 17.3384 15.1132 17.8605 16.107 18.5123C16.3591 18.6779 16.6004 18.8489 16.8362 19.0164C17.731 19.6555 18.5358 20.2281 19.5297 20.1381C20.1058 20.084 20.7035 19.5421 21.006 17.9235C21.7208 14.0958 23.1287 5.80658 23.4546 2.38935C23.4744 2.10563 23.4624 1.82058 23.4186 1.53955C23.3924 1.31257 23.2819 1.10372 23.1089 0.954404C22.8515 0.743753 22.4518 0.698742 22.2717 0.702343C21.4597 0.716746 20.2138 1.15065 14.213 3.64606Z" fill="#002A37"/>
</svg>
