<svg width="16" height="15" viewBox="0 0 16 15" fill="none" xmlns="http://www.w3.org/2000/svg">
<path fill-rule="evenodd" clip-rule="evenodd" d="M9.66645 2.9457C8.25478 3.53238 5.43264 4.74809 1.20126 6.59161C0.514176 6.86499 0.153697 7.13232 0.121037 7.39361C0.0653922 7.83634 0.619416 8.01053 1.37182 8.24642C1.47464 8.27908 1.58109 8.31174 1.68996 8.34803C2.43148 8.58875 3.42824 8.8706 3.94598 8.88149C4.41653 8.89116 4.94152 8.69762 5.52095 8.30085C9.47411 5.63114 11.5148 4.28237 11.643 4.25334C11.7338 4.23277 11.8596 4.20616 11.9442 4.28237C12.0289 4.35737 12.0204 4.50011 12.012 4.53881C11.9563 4.77228 9.7862 6.7912 8.66122 7.83634C8.31042 8.16174 8.06244 8.39279 8.01164 8.44601C7.89793 8.56335 7.7818 8.67585 7.67051 8.78351C6.98101 9.4464 6.46569 9.94478 7.69954 10.7577C8.29228 11.1484 8.76646 11.4714 9.23944 11.7931C9.75596 12.1451 10.2713 12.4959 10.939 12.9338C11.1084 13.0451 11.2705 13.16 11.4289 13.2725C12.0301 13.702 12.5708 14.0866 13.2386 14.0262C13.6257 13.9899 14.0273 13.6258 14.2305 12.5383C14.7107 9.96655 15.6567 4.39729 15.8756 2.10135C15.8889 1.91073 15.8808 1.71921 15.8514 1.5304C15.8338 1.37789 15.7596 1.23757 15.6434 1.13726C15.4704 0.995726 15.2018 0.965485 15.0809 0.967904C14.5353 0.977581 13.6982 1.26911 9.66645 2.9457Z" fill="#8F96AC"/>
</svg>
