<svg width="28" height="20" viewBox="0 0 28 20" fill="none" xmlns="http://www.w3.org/2000/svg">
<path d="M27.4156 3.1242C27.2562 2.51923 26.9437 1.96753 26.5094 1.52432C26.075 1.08111 25.5341 0.761928 24.9406 0.598726C22.7562 1.21487e-07 14 0 14 0C14 0 5.24375 -1.21487e-07 3.05937 0.595541C2.46569 0.758213 1.92445 1.07721 1.49002 1.52051C1.05558 1.9638 0.743248 2.51578 0.584375 3.12102C-1.19209e-07 5.35032 0 10 0 10C0 10 -1.19209e-07 14.6497 0.584375 16.8758C0.90625 18.1051 1.85625 19.0732 3.05937 19.4013C5.24375 20 14 20 14 20C14 20 22.7562 20 24.9406 19.4013C26.1469 19.0732 27.0938 18.1051 27.4156 16.8758C28 14.6497 28 10 28 10C28 10 28 5.35032 27.4156 3.1242ZM11.2188 14.2675V5.73248L18.4688 9.96815L11.2188 14.2675Z" fill="white"/>
</svg>
