<svg width="20" height="15" viewBox="0 0 20 15" fill="none" xmlns="http://www.w3.org/2000/svg">
<path d="M18.8985 2.93946C18.7928 2.53818 18.5855 2.17224 18.2974 1.87826C18.0093 1.58428 17.6505 1.37257 17.2569 1.26432C15.808 0.867188 10 0.867188 10 0.867188C10 0.867188 4.19202 0.867187 2.74314 1.26221C2.34935 1.37011 1.99035 1.5817 1.70219 1.87573C1.41403 2.16977 1.20686 2.53589 1.10148 2.93734C0.713867 4.41603 0.713867 7.50014 0.713867 7.50014C0.713867 7.50014 0.713867 10.5843 1.10148 12.0608C1.31498 12.8762 1.94511 13.5184 2.74314 13.736C4.19202 14.1331 10 14.1331 10 14.1331C10 14.1331 15.808 14.1331 17.2569 13.736C18.057 13.5184 18.685 12.8762 18.8985 12.0608C19.2861 10.5843 19.2861 7.50014 19.2861 7.50014C19.2861 7.50014 19.2861 4.41603 18.8985 2.93946ZM8.15521 10.3308V4.66952L12.9641 7.47902L8.15521 10.3308Z" fill="#8F96AC"/>
</svg>
