<svg width="28" height="21" viewBox="0 0 28 21" fill="none" xmlns="http://www.w3.org/2000/svg">
<path d="M27.4156 3.92499C27.2562 3.32001 26.9437 2.76831 26.5094 2.3251C26.075 1.88189 25.5341 1.56271 24.9406 1.39951C22.7562 0.800781 14 0.800781 14 0.800781C14 0.800781 5.24375 0.800781 3.05937 1.39632C2.46569 1.55899 1.92445 1.878 1.49002 2.32129C1.05558 2.76458 0.743248 3.31657 0.584375 3.9218C-1.19209e-07 6.1511 0 10.8008 0 10.8008C0 10.8008 -1.19209e-07 15.4505 0.584375 17.6766C0.90625 18.9059 1.85625 19.874 3.05937 20.2021C5.24375 20.8008 14 20.8008 14 20.8008C14 20.8008 22.7562 20.8008 24.9406 20.2021C26.1469 19.874 27.0938 18.9059 27.4156 17.6766C28 15.4505 28 10.8008 28 10.8008C28 10.8008 28 6.1511 27.4156 3.92499ZM11.2188 15.0683V6.53327L18.4688 10.7689L11.2188 15.0683Z" fill="#002A37"/>
</svg>
